<?xml version="1.0" encoding="utf-8"?>
<!-- Generator: Adobe Illustrator 25.2.0, SVG Export Plug-In . SVG Version: 6.00 Build 0)  -->
<svg version="1.1" id="Layer_1" xmlns="http://www.w3.org/2000/svg" xmlns:xlink="http://www.w3.org/1999/xlink" x="0px" y="0px"
	 viewBox="0 0 426.55 169.56" style="enable-background:new 0 0 426.55 169.56;" xml:space="preserve">
<style type="text/css">
	.st0{fill:#181837;}
	.st1{fill:#00A17E;}
	.st2{fill:#24D274;}
</style>
<g>
	<g>
		<g>
			<path class="st0" d="M200.91,71.92c1.7,0,3.18-0.15,4.44-0.46c1.26-0.31,2.46-0.73,3.6-1.27v-7.37h-5.07
				c-0.49,0-0.87-0.14-1.15-0.41c-0.28-0.27-0.42-0.6-0.42-0.99v-4.26h13.48v16.4c-1.03,0.75-2.1,1.4-3.21,1.95
				c-1.11,0.55-2.3,1-3.56,1.36c-1.26,0.35-2.61,0.62-4.05,0.8c-1.44,0.18-2.99,0.27-4.65,0.27c-2.95,0-5.67-0.51-8.16-1.54
				s-4.63-2.46-6.45-4.29c-1.81-1.83-3.23-4.02-4.25-6.56c-1.02-2.54-1.53-5.32-1.53-8.32c0-3.04,0.5-5.84,1.49-8.38
				c0.99-2.54,2.39-4.73,4.22-6.56c1.82-1.83,4.03-3.25,6.63-4.26c2.6-1.01,5.51-1.51,8.74-1.51c3.31,0,6.17,0.49,8.59,1.47
				c2.42,0.98,4.47,2.26,6.15,3.83l-2.19,3.42c-0.43,0.69-1,1.04-1.71,1.04c-0.45,0-0.91-0.15-1.37-0.45
				c-0.6-0.36-1.21-0.71-1.84-1.07c-0.63-0.35-1.32-0.66-2.07-0.92c-0.76-0.26-1.61-0.48-2.55-0.65c-0.95-0.17-2.03-0.25-3.27-0.25
				c-2,0-3.81,0.34-5.42,1.01c-1.62,0.67-2.99,1.64-4.14,2.89c-1.14,1.25-2.02,2.76-2.63,4.51c-0.62,1.76-0.92,3.72-0.92,5.89
				c0,2.34,0.33,4.41,0.98,6.24c0.66,1.82,1.57,3.36,2.75,4.61c1.18,1.25,2.58,2.21,4.2,2.87
				C197.21,71.59,198.99,71.92,200.91,71.92z"/>
			<path class="st0" d="M259.01,77.47h-5.83c-0.66,0-1.19-0.16-1.61-0.49c-0.42-0.33-0.72-0.73-0.91-1.22l-3.03-8.27h-16.79
				l-3.03,8.27c-0.15,0.43-0.45,0.82-0.88,1.18c-0.44,0.35-0.98,0.53-1.61,0.53h-5.86l15.92-40.53h7.71L259.01,77.47z M232.78,62.17
				h12.92l-4.93-13.48c-0.22-0.6-0.47-1.3-0.74-2.12s-0.54-1.7-0.8-2.65c-0.26,0.95-0.52,1.84-0.77,2.66
				c-0.25,0.82-0.5,1.54-0.74,2.16L232.78,62.17z"/>
			<path class="st0" d="M284.98,62.52c0.27,0.65,0.54,1.29,0.8,1.95c0.26-0.67,0.53-1.34,0.81-1.99c0.28-0.65,0.58-1.28,0.9-1.88
				l12-22.45c0.15-0.28,0.3-0.5,0.46-0.67c0.16-0.17,0.34-0.29,0.53-0.36c0.2-0.07,0.42-0.12,0.66-0.14
				c0.24-0.02,0.53-0.03,0.87-0.03h5.69v40.53h-6.64V51.29c0-0.49,0.02-1.02,0.04-1.6c0.03-0.58,0.07-1.17,0.13-1.77l-12.25,22.98
				c-0.28,0.52-0.64,0.93-1.09,1.22c-0.45,0.29-0.97,0.43-1.57,0.43h-1.04c-0.6,0-1.12-0.14-1.57-0.43
				c-0.45-0.29-0.81-0.7-1.09-1.22l-12.42-23.07c0.07,0.62,0.13,1.22,0.15,1.81c0.03,0.59,0.04,1.14,0.04,1.64v26.18h-6.64V36.94
				h5.69c0.33,0,0.62,0.01,0.87,0.03c0.24,0.02,0.46,0.07,0.66,0.14c0.19,0.08,0.38,0.2,0.55,0.36c0.17,0.17,0.33,0.39,0.48,0.67
				l12.11,22.51C284.41,61.25,284.71,61.87,284.98,62.52z"/>
			<path class="st0" d="M342,36.94v6h-17.97v11.24h14.15v5.8h-14.15v11.46H342v6.03h-25.56V36.94H342z"/>
		</g>
		<g>
			<path class="st0" d="M179.95,92.54h6.33c0.65,0,1.2,0.15,1.64,0.46c0.44,0.31,0.73,0.72,0.88,1.25l6.9,24.24
				c0.17,0.6,0.32,1.25,0.46,1.95c0.14,0.7,0.28,1.44,0.41,2.23c0.15-0.78,0.31-1.53,0.49-2.23c0.18-0.7,0.37-1.35,0.57-1.95
				l7.96-24.24c0.15-0.43,0.44-0.82,0.88-1.18c0.44-0.35,0.98-0.53,1.61-0.53h2.22c0.65,0,1.2,0.15,1.63,0.46
				c0.43,0.31,0.73,0.72,0.9,1.25l7.9,24.24c0.41,1.2,0.77,2.52,1.06,3.98c0.13-0.73,0.27-1.43,0.41-2.1
				c0.14-0.67,0.28-1.3,0.43-1.88l6.89-24.24c0.13-0.47,0.42-0.87,0.87-1.21c0.45-0.34,0.99-0.5,1.63-0.5h5.92l-12.58,40.53h-6.81
				l-8.86-27.69c-0.11-0.36-0.23-0.74-0.35-1.15c-0.12-0.41-0.24-0.85-0.35-1.32c-0.11,0.47-0.23,0.91-0.35,1.32
				c-0.12,0.41-0.24,0.79-0.35,1.15l-8.94,27.69h-6.81L179.95,92.54z"/>
			<path class="st0" d="M275.24,133.06h-5.83c-0.66,0-1.19-0.16-1.61-0.49c-0.42-0.33-0.72-0.73-0.91-1.22l-3.03-8.27h-16.79
				l-3.03,8.27c-0.15,0.43-0.45,0.82-0.88,1.18c-0.44,0.35-0.98,0.53-1.61,0.53h-5.86l15.92-40.53h7.71L275.24,133.06z M249,117.76
				h12.92l-4.93-13.48c-0.22-0.6-0.47-1.3-0.74-2.12c-0.27-0.81-0.54-1.7-0.8-2.65c-0.26,0.95-0.52,1.84-0.77,2.66
				c-0.25,0.82-0.5,1.54-0.74,2.16L249,117.76z"/>
			<path class="st0" d="M287.77,117.23v15.83h-7.54V92.54h12.36c2.77,0,5.13,0.28,7.1,0.85c1.97,0.57,3.59,1.37,4.85,2.4
				c1.26,1.03,2.19,2.26,2.78,3.69c0.59,1.43,0.88,3,0.88,4.72c0,1.36-0.2,2.65-0.6,3.87c-0.4,1.21-0.98,2.32-1.74,3.31
				c-0.76,0.99-1.69,1.86-2.8,2.61c-1.11,0.75-2.38,1.35-3.8,1.79c0.95,0.54,1.78,1.32,2.47,2.33l10.15,14.97h-6.78
				c-0.66,0-1.21-0.13-1.67-0.39c-0.46-0.26-0.85-0.63-1.16-1.12l-8.52-12.98c-0.32-0.48-0.67-0.83-1.05-1.04
				c-0.38-0.21-0.95-0.31-1.7-0.31H287.77z M287.77,111.82h4.71c1.42,0,2.66-0.18,3.71-0.53c1.06-0.35,1.93-0.85,2.61-1.47
				c0.68-0.63,1.19-1.37,1.53-2.23c0.33-0.86,0.5-1.8,0.5-2.83c0-2.06-0.68-3.63-2.03-4.74c-1.36-1.1-3.42-1.65-6.21-1.65h-4.82
				V111.82z"/>
			<path class="st0" d="M353.23,112.8c0,2.97-0.5,5.7-1.49,8.18c-0.99,2.49-2.38,4.62-4.17,6.42c-1.79,1.79-3.95,3.19-6.47,4.18
				c-2.52,0.99-5.32,1.49-8.38,1.49h-15.47V92.54h15.47c3.07,0,5.86,0.5,8.38,1.5c2.52,1,4.68,2.39,6.47,4.18
				c1.79,1.78,3.18,3.92,4.17,6.4C352.74,107.1,353.23,109.83,353.23,112.8z M345.53,112.8c0-2.22-0.3-4.22-0.9-5.98
				c-0.6-1.77-1.45-3.26-2.55-4.48c-1.1-1.22-2.44-2.16-4.02-2.82c-1.58-0.65-3.36-0.98-5.34-0.98h-7.88v28.53h7.88
				c1.98,0,3.76-0.33,5.34-0.98c1.58-0.65,2.92-1.59,4.02-2.82c1.1-1.22,1.95-2.72,2.55-4.48
				C345.23,117.02,345.53,115.02,345.53,112.8z"/>
			<path class="st0" d="M385.27,92.54v6H367.3v11.24h14.15v5.8H367.3v11.46h17.97v6.03h-25.56V92.54H385.27z"/>
			<path class="st0" d="M397.15,92.58c0.22,0.03,0.42,0.08,0.6,0.17c0.18,0.08,0.35,0.21,0.52,0.36c0.17,0.16,0.35,0.37,0.56,0.63
				l21.27,27.1c-0.07-0.65-0.13-1.29-0.16-1.92c-0.03-0.63-0.04-1.21-0.04-1.75V92.54h6.64v40.53h-3.9c-0.6,0-1.09-0.09-1.49-0.28
				c-0.39-0.19-0.77-0.52-1.15-1.01l-21.19-26.99c0.06,0.6,0.1,1.19,0.12,1.78c0.03,0.59,0.04,1.13,0.04,1.61v24.89h-6.64V92.54
				h3.95C396.65,92.54,396.93,92.55,397.15,92.58z"/>
		</g>
	</g>
	<g>
		<g>
			<path class="st1" d="M62.97,149.62c-1.39-0.37-2.75-0.78-4.11-1.24c-0.57-0.19-1.12-0.39-1.68-0.59c-0.3-0.11-0.6-0.21-0.9-0.33
				c-0.38-0.15-0.76-0.3-1.14-0.45c-0.43-0.17-0.85-0.34-1.27-0.52c-24-10.2-40.85-33.98-40.85-61.71
				c0-37.03,30.02-67.04,67.04-67.04c3.31,0,6.55,0.25,9.73,0.71L80.47,6.19l-1.11-1.46L75.8,0.05c-0.07-0.1-0.23-0.05-0.23,0.08
				v4.72C33.44,7.18,0,42.07,0,84.78c0,36.94,25.02,68.02,59.04,77.26v-0.03c4.94,1.35,10.07,2.24,15.35,2.61L62.97,149.62z"/>
			<path class="st2" d="M160.13,84.78c0-42.31-32.82-76.93-74.39-79.84l11.42,15.01c28.74,7.56,49.95,33.72,49.95,64.84
				c0,33.29-24.26,60.89-56.07,66.13c-0.6,0.1-1.2,0.18-1.8,0.27c-0.44,0.06-0.87,0.12-1.31,0.17c-0.48,0.06-0.97,0.11-1.45,0.15
				c-0.66,0.06-1.33,0.12-1.99,0.16c-1.46,0.1-2.93,0.16-4.42,0.16c-3.31,0-6.55-0.25-9.73-0.71l14,18.4
				c0.07,0.1,0.23,0.05,0.23-0.08v-4.72c0.54-0.03,1.07-0.08,1.6-0.13C127.53,161.47,160.13,126.94,160.13,84.78z"/>
		</g>
		<g>
			<polygon points="95.49,74.39 95.49,108.39 88.92,114.89 88.92,80.96 79.18,90.79 79.18,124.64 76.27,127.45 72.6,126.72 
				72.6,97.36 62.86,107.18 62.86,124.77 62.86,134.53 71.7,136.3 71.7,136.3 79.63,137.88 105.23,112.43 105.23,64.57 			"/>
			<polygon points="90.56,69.31 100.23,59.57 52.53,59.57 26.83,85.18 28.42,93.11 30.19,101.94 39.94,101.94 58.15,101.94 
				77.06,82.89 77.04,82.89 83.99,75.89 57.56,75.89 47.81,85.63 60.69,85.63 54.12,92.2 37.99,92.2 37.26,88.53 56.57,69.31 			"/>
			<polygon class="st1" points="111.32,53.48 111.32,106.34 121.07,96.6 121.07,43.66 68.44,43.66 58.69,53.41 110.03,53.41 			"/>
		</g>
	</g>
</g>
</svg>
